PathFileType	4	(X/Y/Z)	/Users/itak/Documents/Research/Walk-IL/dataset/trc/00312_00010.trc
DataRate	CameraRate	NumFrames	NumMarkers	Units	OrigDataRate	OrigDataStartFrame	OrigNumFrames
100.000000	100.000000	4	53	mm	100.000000	135	543
Frame#	Time	RPSI			LPSI			L3			STRN			T10			C7			CLAV			RBAK			LBAK			LSHO			LUPA			LAEL			LAOL			LWTS			LWPS			LFRA			LIFD			LHPS			LHTS			RSHO			RUPA			RAEL			RAOL			RWTS			RWPS			RFRA			RIFD			RHTS			RHPS			RBHD			LFHD			RFHD			LBHD			LHIP			RHIP			RASI			LASI			LKNE			LTHI			LANK			LTIP			LTOE			LMT1			LMT5			LHEE			RKNE			RTHI			RANK			RTIP			RTOE			RMT1			RMT5			RHEE			
		X1	Y1	Z1	X2	Y2	Z2	X3	Y3	Z3	X4	Y4	Z4	X5	Y5	Z5	X6	Y6	Z6	X7	Y7	Z7	X8	Y8	Z8	X9	Y9	Z9	X10	Y10	Z10	X11	Y11	Z11	X12	Y12	Z12	X13	Y13	Z13	X14	Y14	Z14	X15	Y15	Z15	X16	Y16	Z16	X17	Y17	Z17	X18	Y18	Z18	X19	Y19	Z19	X20	Y20	Z20	X21	Y21	Z21	X22	Y22	Z22	X23	Y23	Z23	X24	Y24	Z24	X25	Y25	Z25	X26	Y26	Z26	X27	Y27	Z27	X28	Y28	Z28	X29	Y29	Z29	X30	Y30	Z30	X31	Y31	Z31	X32	Y32	Z32	X33	Y33	Z33	X34	Y34	Z34	X35	Y35	Z35	X36	Y36	Z36	X37	Y37	Z37	X38	Y38	Z38	X39	Y39	Z39	X40	Y40	Z40	X41	Y41	Z41	X42	Y42	Z42	X43	Y43	Z43	X44	Y44	Z44	X45	Y45	Z45	X46	Y46	Z46	X47	Y47	Z47	X48	Y48	Z48	X49	Y49	Z49	X50	Y50	Z50	X51	Y51	Z51	X52	Y52	Z52	X53	Y53	Z53	

136	1.35	-1180.527099609375	1012.643249511719	-622.5222778320312	-1175.577514648438	998.4595947265625	-796.7736206054688	-1156.95166015625	1076.074829101562	-711.2994995117188	-905.5161743164062	1250.601440429688	-721.1319580078125	-1167.792724609375	1192.829711914062	-713.2990112304688	-1122.77685546875	1435.206909179688	-740.5484008789062	-963.04931640625	1355.1171875	-729.4905395507812	-1177.622802734375	1303.358154296875	-654.997802734375	-1135.503295898438	1395.90185546875	-843.0883178710938	-1044.423095703125	1403.089965820312	-896.1183471679688	-1083.359252929688	1288.290161132812	-965.7653198242188	-1101.613525390625	1085.805908203125	-975.4716796875	-1151.090209960938	1078.426147460938	-904.7813720703125	-1034.102783203125	856.132568359375	-937.9944458007812	-1078.13134765625	847.0938720703125	-995.0667114257812	-1098.333740234375	980.331298828125	-986.1187133789062	-1043.652587890625	671.8063354492188	-940.3274536132812	-1080.009887695312	758.5032348632812	-992.5680541992188	-1023.383728027344	755.278076171875	-960.0802001953125	-1055.72314453125	1421.6494140625	-579.9615478515625	-1060.740478515625	1366.315307617188	-509.5419921875	-1048.73046875	1100.123168945312	-446.9502258300781	-1096.978515625	1087.900756835938	-527.5670166015625	-932.8634033203125	895.6568603515625	-533.9780883789062	-952.8905639648438	881.6679077148438	-452.0607299804688	-1013.840148925781	1034.7529296875	-441.9713745117188	-899.4072265625	712.9760131835938	-547.8832397460938	-881.9307861328125	786.1204833984375	-533.23974609375	-912.5569458007812	777.0196533203125	-469.5162353515625	-1110.409423828125	1587.479858398438	-677.9364624023438	-930.5228881835938	1632.964599609375	-783.2191162109375	-939.9053955078125	1630.98095703125	-690.5673828125	-1094.891357421875	1580.240844726562	-822.9728393554688	-1105.113647460938	947.1756591796875	-888.8797607421875	-1081.965087890625	962.07373046875	-515.5695190429688	-960.7269897460938	961.2600708007812	-583.5554809570312	-967.4730834960938	953.7781372070312	-835.2222290039062	-1036.3505859375	480.1867065429688	-849.4743041992188	-1044.342407226562	621.2924194335938	-874.4175415039062	-1162.634155273438	48.8338508605957	-826.3915405273438	-1101.587890625	257.4402465820312	-847.6064453125	-954.0087890625	39.50412750244141	-769.2593383789062	-1025.231201171875	31.42361450195312	-726.99072265625	-1040.777954101562	42.84312057495117	-839.1873779296875	-1207.692016601562	44.50077056884766	-766.1187133789062	-1070.314575195312	486.0814514160156	-537.9580688476562	-1030.233032226562	748.0218505859375	-513.9835815429688	-1152.904418945312	44.94378662109375	-555.0194702148438	-1067.834350585938	363.0391235351562	-548.733154296875	-957.1018676757812	45.69278717041016	-601.5967407226562	-1013.309326171875	40.58997344970703	-643.0200805664062	-1049.244506835938	38.39533233642578	-530.9756469726562	-1203.9697265625	36.75679779052734	-604.876708984375	
137	1.36	-1179.063720703125	1012.518310546875	-623.058837890625	-1174.398315429688	998.2997436523438	-797.3342895507812	-1155.551391601562	1075.944702148438	-711.79248046875	-904.17138671875	1250.451416015625	-721.9463500976562	-1166.546630859375	1192.624389648438	-713.7220458984375	-1121.544555664062	1435.0322265625	-741.0594482421875	-961.7935180664062	1354.88720703125	-730.2052001953125	-1176.156982421875	1303.200439453125	-655.4008178710938	-1134.44775390625	1395.633911132812	-843.5479736328125	-1043.462890625	1402.696533203125	-896.7242431640625	-1082.60498046875	1288.041015625	-966.4388427734375	-1101.389892578125	1085.592895507812	-976.3614501953125	-1150.76171875	1078.338012695312	-905.61376953125	-1035.456176757812	855.3341064453125	-939.1073608398438	-1079.607177734375	846.7120971679688	-996.2144165039062	-1098.754516601562	980.10693359375	-987.1224975585938	-1046.683349609375	671.0219116210938	-941.6310424804688	-1082.170532226562	758.10595703125	-993.8466186523438	-1025.328002929688	754.6788330078125	-961.6351318359375	-1054.233520507812	1421.575073242188	-580.5637817382812	-1059.199462890625	1366.279296875	-510.1021728515625	-1047.5146484375	1100.096313476562	-447.5381774902344	-1095.44384765625	1087.76904296875	-528.3958740234375	-930.9669189453125	895.69091796875	-533.6563110351562	-951.507568359375	881.7575073242188	-451.9016418457031	-1012.659545898438	1034.792358398438	-442.3430480957031	-897.0887451171875	713.0897216796875	-547.1744995117188	-879.8408813476562	786.22705078125	-532.4603881835938	-910.9811401367188	777.140869140625	-468.9580993652344	-1109.140747070312	1587.272338867188	-678.746337890625	-929.5244140625	1632.714233398438	-784.4662475585938	-938.6444702148438	1630.997924804688	-691.8070678710938	-1093.886352539062	1579.655395507812	-823.7923583984375	-1103.931762695312	946.9262084960938	-889.4860229492188	-1080.345092773438	961.917724609375	-516.223388671875	-959.2408447265625	961.09765625	-584.4369506835938	-966.2026977539062	953.5555419921875	-836.0618896484375	-1035.486206054688	479.9413452148438	-849.90869140625	-1043.465454101562	621.0262451171875	-874.922607421875	-1162.631591796875	48.8338623046875	-826.3819580078125	-1101.060913085938	257.2525939941406	-847.77880859375	-953.992431640625	39.50552749633789	-769.2517700195312	-1025.2294921875	31.4252872467041	-726.9822387695312	-1040.792724609375	42.84851455688477	-839.1870727539062	-1207.6884765625	44.50963592529297	-766.109619140625	-1069.151000976562	485.9678649902344	-538.446533203125	-1028.72900390625	747.8355102539062	-514.6216430664062	-1152.973754882812	45.05168151855469	-555.0892333984375	-1067.1005859375	362.8698120117188	-549.1173095703125	-957.0491943359375	45.67997360229492	-601.6578979492188	-1013.291198730469	40.50419616699219	-643.101318359375	-1049.23193359375	38.44223403930664	-531.0260009765625	-1204.006958007812	36.79897308349609	-604.9121704101562	
138	1.37	-1177.551635742188	1012.378234863281	-623.6182861328125	-1173.19287109375	998.1339111328125	-797.9235229492188	-1154.12744140625	1075.810180664062	-712.3223876953125	-902.7760009765625	1250.29150390625	-722.7982177734375	-1165.24267578125	1192.406860351562	-714.1660766601562	-1120.259521484375	1434.846801757812	-741.5932006835938	-960.4990234375	1354.651123046875	-730.9620361328125	-1174.630981445312	1303.032470703125	-655.8245239257812	-1133.371948242188	1395.33642578125	-844.03564453125	-1042.472412109375	1402.261474609375	-897.3597412109375	-1081.7734375	1287.734008789062	-967.1492919921875	-1101.032348632812	1085.31396484375	-977.2863159179688	-1150.356079101562	1078.171264648438	-906.5108032226562	-1036.706787109375	854.4894409179688	-940.2010498046875	-1080.954956054688	846.2750854492188	-997.3699951171875	-1099.0244140625	979.82275390625	-988.1480102539062	-1049.657592773438	670.2045288085938	-942.9107666015625	-1084.221801757812	757.6624145507812	-995.124755859375	-1027.019653320312	754.08935546875	-963.0188598632812	-1052.67578125	1421.49658203125	-581.1956787109375	-1057.596801757812	1366.241821289062	-510.6941528320312	-1046.329956054688	1100.072021484375	-448.1509399414062	-1093.900268554688	1087.653198242188	-529.2589721679688	-929.1434326171875	895.6703491210938	-533.2905883789062	-950.21435546875	881.8153686523438	-451.7113952636719	-1011.512023925781	1034.831665039062	-442.7202453613281	-894.9096069335938	713.1602783203125	-546.3414306640625	-877.8780517578125	786.2564697265625	-531.5970458984375	-909.5238647460938	777.2161254882812	-468.3276977539062	-1107.838745117188	1587.050537109375	-679.5729370117188	-928.470947265625	1632.455688476562	-785.6920166015625	-937.3515014648438	1630.982055664062	-693.0203857421875	-1092.81591796875	1579.091186523438	-824.6253051757812	-1102.74560546875	946.6787109375	-890.1334838867188	-1078.664306640625	961.7490234375	-516.9142456054688	-957.6626586914062	960.9365844726562	-585.3585205078125	-964.9215087890625	953.3275756835938	-836.9695434570312	-1034.637573242188	479.6929931640625	-850.3514404296875	-1042.591796875	620.76123046875	-875.443115234375	-1162.630249023438	48.83141708374023	-826.3731079101562	-1100.54931640625	257.0606384277344	-847.9605712890625	-953.9811401367188	39.5045051574707	-769.2474365234375	-1025.229614257812	31.4175853729248	-726.9721069335938	-1040.809448242188	42.85527038574219	-839.1870727539062	-1207.685424804688	44.51404571533203	-766.10107421875	-1067.823852539062	485.8275146484375	-538.9905395507812	-1027.144409179688	747.65625	-515.3593139648438	-1153.032348632812	45.16271209716797	-555.1697998046875	-1066.20751953125	362.6635131835938	-549.54345703125	-956.993408203125	45.66398239135742	-601.7235717773438	-1013.268188476562	40.40737533569336	-643.19091796875	-1049.212646484375	38.4943962097168	-531.081298828125	-1204.0478515625	36.84856796264648	-604.956298828125	
139	1.38	-1176.00048828125	1012.221618652344	-624.2064208984375	-1171.957763671875	997.9609375	-798.54443359375	-1152.691040039062	1075.671508789062	-712.89599609375	-901.3360595703125	1250.118041992188	-723.6943969726562	-1163.885864257812	1192.175903320312	-714.6351928710938	-1118.918090820312	1434.649780273438	-742.1478881835938	-959.1671142578125	1354.410888671875	-731.7686767578125	-1173.052490234375	1302.849243164062	-656.2706909179688	-1132.270629882812	1395.0078125	-844.549560546875	-1041.448120117188	1401.788452148438	-898.0265502929688	-1080.85986328125	1287.367553710938	-967.89599609375	-1100.536010742188	1084.964599609375	-978.2394409179688	-1149.861694335938	1077.919799804688	-907.4599609375	-1037.853271484375	853.5873413085938	-941.2727661132812	-1082.158569335938	845.7762451171875	-998.5265502929688	-1099.13818359375	979.474853515625	-989.187744140625	-1052.554443359375	669.3543701171875	-944.1609497070312	-1086.160766601562	757.1707153320312	-996.3912963867188	-1028.663330078125	753.3681030273438	-964.2437744140625	-1051.0546875	1421.410278320312	-581.8590087890625	-1055.935424804688	1366.196899414062	-511.3211975097656	-1045.173706054688	1100.0478515625	-448.7858581542969	-1092.352172851562	1087.553588867188	-530.1520385742188	-927.4056396484375	895.5948486328125	-532.8845825195312	-949.0184326171875	881.8430786132812	-451.4936828613281	-1010.39599609375	1034.868896484375	-443.1013488769531	-892.8786010742188	713.1837158203125	-545.3983154296875	-876.0550537109375	786.2064819335938	-530.656494140625	-908.1849365234375	777.2415161132812	-467.6331787109375	-1106.493896484375	1586.81201171875	-680.4156494140625	-927.353759765625	1632.19091796875	-786.89501953125	-936.0196533203125	1630.932861328125	-694.201904296875	-1091.669921875	1578.548461914062	-825.4683837890625	-1101.56591796875	946.4363403320312	-890.8294067382812	-1076.93603515625	961.5718994140625	-517.6455688476562	-955.9951171875	960.7801513671875	-586.3189086914062	-963.6326293945312	953.0984497070312	-837.9403076171875	-1033.797485351562	479.4405212402344	-850.8019409179688	-1041.706665039062	620.4959106445312	-875.9793090820312	-1162.630615234375	48.82604217529297	-826.3670043945312	-1100.06298828125	256.8694458007812	-848.1526489257812	-953.9749145507812	39.50107955932617	-769.2465209960938	-1025.232788085938	31.40237045288086	-726.9606323242188	-1040.822387695312	42.85914993286133	-839.1873168945312	-1207.684814453125	44.51545715332031	-766.0947265625	-1066.308227539062	485.6532897949219	-539.5979614257812	-1025.46142578125	747.492919921875	-516.1953125	-1153.06982421875	45.27033996582031	-555.2589721679688	-1065.128173828125	362.4234619140625	-550.0059204101562	-956.9382934570312	45.64304733276367	-601.7919311523438	-1013.240966796875	40.30123519897461	-643.2861938476562	-1049.185791015625	38.55006790161133	-531.1411743164062	-1204.090942382812	36.90464019775391	-605.0087890625	
